<?xml version="1.0" encoding="iso-8859-1"?>
<!-- Generator: Adobe Illustrator 19.2.0, SVG Export Plug-In . SVG Version: 6.00 Build 0)  -->
<svg xmlns="http://www.w3.org/2000/svg" xmlns:xlink="http://www.w3.org/1999/xlink" version="1.1" id="Layer_1" x="0px" y="0px" viewBox="0 0 40 40" style="enable-background:new 0 0 40 40;" xml:space="preserve">
<g>
	
		<rect x="-1.42" y="14.136" transform="matrix(0.7071 -0.7071 0.7071 0.7071 -8.2843 20)" style="fill:#B6DCFE;" width="42.841" height="11.728"/>
	<path style="fill:#4788C7;" d="M31,1.414L38.586,9L9,38.586L1.414,31L31,1.414 M31,0L0,31l9,9L40,9L31,0L31,0z"/>
</g>
<path style="fill:#4788C7;" d="M30.147,6.854c0.194,0.194,0.513,0.194,0.707,0s0.194-0.513,0-0.707l-3.001-3.001l-0.707,0.707  L30.147,6.854z"/>
<path style="fill:#4788C7;" d="M26.147,8.854c0.194,0.194,0.513,0.194,0.707,0s0.194-0.513,0-0.707l-2.001-2.001l-0.707,0.707  L26.147,8.854z"/>
<path style="fill:#4788C7;" d="M24.147,12.854c0.194,0.194,0.513,0.194,0.707,0s0.194-0.513,0-0.707l-3.001-3.001l-0.707,0.707  L24.147,12.854z"/>
<path style="fill:#4788C7;" d="M20.147,14.854c0.194,0.194,0.513,0.194,0.707,0s0.194-0.513,0-0.707l-2.001-2.001l-0.707,0.707  L20.147,14.854z"/>
<path style="fill:#4788C7;" d="M18.147,18.854c0.194,0.194,0.513,0.194,0.707,0s0.194-0.513,0-0.707l-3.001-3.001l-0.707,0.707  L18.147,18.854z"/>
<path style="fill:#4788C7;" d="M14.147,20.854c0.194,0.194,0.513,0.194,0.707,0s0.194-0.513,0-0.707l-2.001-2.001l-0.707,0.707  L14.147,20.854z"/>
<path style="fill:#4788C7;" d="M8.854,26.147l-2.001-2.001l-0.707,0.707l2.001,2.001c0.194,0.194,0.513,0.194,0.707,0  S9.049,26.341,8.854,26.147z"/>
<path style="fill:#4788C7;" d="M12.147,24.854c0.194,0.194,0.513,0.194,0.707,0s0.194-0.513,0-0.707l-3.001-3.001l-0.707,0.707  L12.147,24.854z"/>
<path style="fill:#4788C7;" d="M6.147,30.854c0.194,0.194,0.513,0.194,0.707,0s0.194-0.513,0-0.707l-3.001-3.001l-0.707,0.707  L6.147,30.854z"/>
</svg>
